<svg width="24" height="22" viewBox="0 0 24 22" fill="none" xmlns="http://www.w3.org/2000/svg">
<path d="M21.3996 17.8401H21.3465H21.3467C21.2328 17.1889 20.8573 16.6059 20.3003 16.2156C20.2164 16.1565 20.1281 16.1101 20.0398 16.0595L20.0088 7.44313C20.1358 7.34236 20.2511 7.22915 20.3534 7.10558C20.7939 6.56723 20.9456 5.86275 20.7633 5.20177C20.5808 4.54079 20.0855 3.9994 19.4242 3.73852C18.763 3.47782 18.0122 3.52774 17.3953 3.87358C17.2829 3.93951 17.1765 4.01429 17.0774 4.09717L6.9228 1.4981V1.49791C6.88378 1.37999 6.83352 1.26546 6.77261 1.15621C6.58005 0.813006 6.29524 0.525178 5.94753 0.321922C5.60005 0.118863 5.20212 0.00772543 4.79468 2.53284e-07C4.38609 -0.00018815 3.98499 0.104734 3.63355 0.303838C2.93916 0.698845 2.51345 1.41352 2.51203 2.1858C2.51203 2.51337 2.59048 2.8368 2.74166 3.13086C2.92082 3.48895 3.19873 3.79391 3.54524 4.01279C3.79595 4.16537 4.07444 4.27123 4.36634 4.32492V7.54866L0.622443 9.32497C0.435791 9.41482 0.278702 9.55214 0.168917 9.72205C0.0589344 9.89177 0.000595398 10.0875 0 10.2872V11.8525C0 12.0855 0.197496 12.2744 0.441503 12.2744C0.685313 12.2744 0.883006 12.0855 0.883006 11.8525V10.2872C0.883006 10.2 0.934054 10.1199 1.01546 10.0803L4.79462 8.28705L8.56515 10.2872C8.63966 10.3282 8.68637 10.4032 8.68873 10.4853V11.8525C8.68873 12.0855 8.88643 12.2745 9.13024 12.2745C9.37405 12.2745 9.57174 12.0855 9.57174 11.8525V10.4853C9.56937 10.2936 9.5134 10.106 9.40933 9.94186C9.30525 9.77777 9.15704 9.64349 8.98004 9.55288L5.23615 7.56126V4.31664C5.52786 4.26465 5.80577 4.1569 6.05296 4.00018C6.15308 3.93576 6.2475 3.86381 6.3356 3.78488L16.3797 6.36288V6.36307C16.413 6.47176 16.4559 6.57762 16.5076 6.67953C16.6871 7.03874 16.9666 7.34369 17.3155 7.56127C17.3926 7.60761 17.4722 7.6498 17.554 7.68785V16.038L17.4568 16.0843C17.3979 16.1165 17.3417 16.1533 17.2891 16.1941C16.7037 16.5754 16.3091 17.1708 16.1986 17.8397H15.7174C15.0284 17.8409 14.3681 18.1031 13.8814 18.5691C13.3946 19.0349 13.1212 19.6665 13.1212 20.3249V21.2446C13.1212 21.4443 13.204 21.6357 13.3513 21.7773C13.4985 21.9188 13.6984 21.9989 13.9073 22H23.2096C23.4194 22 23.6204 21.9205 23.7686 21.7789C23.9168 21.6372 24 21.4451 24 21.2447V20.3249C24 19.6658 23.726 19.0336 23.2384 18.5676C22.7506 18.1016 22.0893 17.8397 21.3995 17.8397L21.3996 17.8401ZM5.55389 3.29971C5.32466 3.44231 5.057 3.51822 4.78341 3.51822C4.50981 3.51822 4.24215 3.44231 4.01292 3.29971C3.61971 3.05126 3.38119 2.63213 3.37726 2.18154C3.37706 1.82383 3.52706 1.48102 3.79333 1.22973C4.05961 0.978451 4.42012 0.839431 4.79441 0.843955C5.04256 0.846969 5.28578 0.912334 5.49885 1.03383C5.71211 1.15532 5.88792 1.32863 6.00857 1.53601C6.12111 1.73568 6.18024 1.9589 6.18083 2.1859C6.18379 2.49162 6.07795 2.78926 5.88046 3.02979C5.78565 3.13415 5.67567 3.22513 5.55386 3.29972L5.55389 3.29971ZM17.2979 6.31249C17.2082 6.139 17.1599 5.94875 17.1565 5.75547C17.1552 5.27947 17.4193 4.83887 17.8497 4.59925C18.0632 4.47738 18.3074 4.41333 18.5561 4.41371C18.9095 4.41182 19.2507 4.53803 19.5109 4.76671C19.7711 4.99557 19.9311 5.30978 19.9587 5.64657C19.9863 5.98337 19.8795 6.31772 19.6599 6.58237C19.4395 6.84081 19.1279 7.01297 18.7838 7.06666C18.4399 7.12035 18.087 7.05159 17.7924 6.87358C17.5758 6.73438 17.4045 6.53998 17.2979 6.31242L17.2979 6.31249ZM17.7924 16.8611L17.8939 16.7978C18.1826 16.6358 18.5144 16.5572 18.8489 16.5715C19.1833 16.5857 19.5064 16.6921 19.7792 16.8778C20.1101 17.1078 20.3472 17.4403 20.4501 17.8189H17.0904C17.1976 17.4354 17.4471 17.1026 17.7924 16.8822L17.7924 16.8611Z" fill="#6D707E"/>
</svg>
