<svg width="24" height="25" viewBox="0 0 24 25" fill="blue" xmlns="http://www.w3.org/2000/svg">
<path d="M17.1406 9.85826V14.144H23.1406V9.85826C23.1406 9.62254 22.9478 9.42969 22.7121 9.42969H20.5692H19.2835H19.1985H19.0522H17.9978H17.5692C17.3335 9.42969 17.1406 9.62254 17.1406 9.85826Z" fill="#6D707E"/>
<path d="M17.1406 15.4286V19.7143H23.1406V15.4286C23.1406 15.1929 22.9478 15 22.7121 15H20.5692H19.2835H19.1985H19.0522H17.9978H17.5692C17.3335 15 17.1406 15.1929 17.1406 15.4286Z" fill="#6D707E"/>
<path d="M7.85978 17.6459L7.94013 18.0369L7.29728 19.7084V19.7137H16.3614C16.3132 19.5744 16.2864 19.4298 16.2864 19.2851V9.85657C16.2864 9.22444 16.7472 8.68337 17.3739 8.58693C17.2829 7.83695 17.1596 7.08692 17.0096 6.35301L16.9293 5.96194L17.5721 4.29051V4.28516H7.29721V4.29051L7.94007 5.96194L7.85971 6.35301C7.08828 10.0762 7.09907 13.9229 7.85978 17.6459Z" fill="#6D707E"/>
<path d="M21.8566 23.5709C21.8566 24.2809 21.2809 24.8566 20.5709 24.8566C19.8609 24.8566 19.2852 24.2809 19.2852 23.5709C19.2852 22.8609 19.8609 22.2852 20.5709 22.2852C21.2809 22.2852 21.8566 22.8609 21.8566 23.5709Z" fill="#6D707E"/>
<path d="M23.5714 20.5714H5.57143C5.1 20.5714 4.71429 20.1857 4.71429 19.7143V1.28571C4.71429 0.578547 4.13574 0 3.42857 0H0.428571C0.192857 0 0 0.192857 0 0.428571C0 0.664286 0.192857 0.857143 0.428571 0.857143H3C3.47143 0.857143 3.85714 1.24286 3.85714 1.71429V20.1429C3.85714 20.85 4.43569 21.4286 5.14286 21.4286H23.5714C23.8071 21.4286 24 21.2357 24 21C24 20.7643 23.8071 20.5714 23.5714 20.5714Z" fill="#6D707E"/>
<path d="M9.4269 23.5709C9.4269 24.2809 8.85119 24.8566 8.14118 24.8566C7.43117 24.8566 6.85547 24.2809 6.85547 23.5709C6.85547 22.8609 7.43117 22.2852 8.14118 22.2852C8.85119 22.2852 9.4269 22.8609 9.4269 23.5709Z" fill="#6D707E"/>
</svg>
